<svg width="16" height="16" xmlns="http://www.w3.org/2000/svg">

 <g>
  <title>background</title>
  <rect fill="none" id="canvas_background" height="402" width="582" y="-1" x="-1"/>
 </g>
 <g>
  <title>Layer 1</title>
  <path id="svg_1" d="m15,9.674l0,1.326l-1.326,0l-1.674,-1.674l-1.674,1.674l-1.326,0l0,-1.326l1.674,-1.674l-1.674,-1.674l0,-1.326l1.326,0l1.674,1.674l1.674,-1.674l1.326,0l0,1.326l-1.674,1.674l1.674,1.674z" fill="#ffffff"/>
  <path id="svg_2" d="m6.5,15c-0.13,0 -0.258,-0.051 -0.354,-0.146l-3.854,-3.854l-1.793,0c-0.276,0 -0.5,-0.224 -0.5,-0.5l0,-5c0,-0.276 0.224,-0.5 0.5,-0.5l1.793,0l3.854,-3.854c0.143,-0.143 0.358,-0.186 0.545,-0.108s0.309,0.26 0.309,0.462l0,13c0,0.202 -0.122,0.385 -0.309,0.462c-0.062,0.026 -0.127,0.038 -0.191,0.038z" fill="#ffffff"/>
 </g>
</svg>